<svg width="12" height="14" viewBox="0 0 12 14" fill="none" xmlns="http://www.w3.org/2000/svg">
<path d="M11.5 13.3019C11.5 13.3924 11.4555 13.4511 11.4038 13.48C11.3541 13.5078 11.3019 13.5081 11.2494 13.4715L6.6557 10.2703C6.25999 9.99453 5.74008 9.99453 5.34436 10.2703L0.750629 13.4715C0.698143 13.5081 0.645978 13.5078 0.596238 13.48C0.544567 13.4511 0.500031 13.3924 0.500031 13.3019V2.4088C0.500031 2.08472 0.632892 1.77048 0.874974 1.53617C1.11761 1.30133 1.45008 1.16663 1.80003 1.16663H10.2C10.55 1.16663 10.8824 1.30133 11.1251 1.53617C11.3672 1.77048 11.5 2.08472 11.5 2.4088V13.3019Z" stroke="#515158"/>
</svg>
