<svg width="19" height="18" viewBox="0 0 19 18" fill="none" xmlns="http://www.w3.org/2000/svg">
<path fill-rule="evenodd" clip-rule="evenodd" d="M8.59391 0.204568C8.9519 -0.0681894 9.448 -0.0681894 9.80599 0.204568L17.806 6.29981C18.0542 6.48895 18.2 6.78315 18.2 7.09524V17C18.2 17.5523 17.7522 18 17.2 18H11.6C11.0477 18 10.6 17.5523 10.6 17V12.6667H7.79995V17C7.79995 17.5523 7.35224 18 6.79995 18H1.19995C0.647666 18 0.199951 17.5523 0.199951 17V7.09524C0.199951 6.78315 0.34566 6.48895 0.593908 6.29981L8.59391 0.204568ZM2.19995 7.59051V16H5.79995V11.6667C5.79995 11.1144 6.24767 10.6667 6.79995 10.6667H11.6C12.1522 10.6667 12.6 11.1144 12.6 11.6667V16H16.2V7.59051L9.19995 2.25718L2.19995 7.59051Z" fill="#808089"/>
</svg>
