<svg width="19" height="19" viewBox="0 0 19 19" fill="none" xmlns="http://www.w3.org/2000/svg">
<path fill-rule="evenodd" clip-rule="evenodd" d="M1 0C0.447715 0 0 0.447715 0 1C0 1.55228 0.447715 2 1 2H2.55443L4.0566 13.1337C4.12353 13.6298 4.54701 14 5.04762 14H16.381C16.8568 14 17.2667 13.6647 17.3611 13.1984L18.9801 5.19836C19.0396 4.90433 18.964 4.59911 18.7741 4.3669C18.5841 4.13468 18.3 4 18 4H4.84239L4.41959 0.866291C4.35266 0.370176 3.92918 0 3.42857 0H1ZM5.92176 12L5.11224 6H16.7773L15.5631 12H5.92176Z" fill="#808089"/>
<path d="M5.5 16C4.67157 16 4 16.6716 4 17.5C4 18.3284 4.67157 19 5.5 19C6.32843 19 7 18.3284 7 17.5C7 16.6716 6.32843 16 5.5 16Z" fill="#808089"/>
<path d="M15 17.5C15 16.6716 15.6716 16 16.5 16C17.3284 16 18 16.6716 18 17.5C18 18.3284 17.3284 19 16.5 19C15.6716 19 15 18.3284 15 17.5Z" fill="#808089"/>
</svg>
