<svg width="14" height="14" viewBox="0 0 14 14" fill="none" xmlns="http://www.w3.org/2000/svg">
<path d="M7.43168 0.947177L9.23108 4.76568L13.2546 5.37906C13.3435 5.39249 13.427 5.43171 13.4956 5.4923C13.5643 5.55288 13.6154 5.63241 13.6432 5.72186C13.671 5.81131 13.6743 5.90712 13.6527 5.99844C13.6312 6.08975 13.5857 6.17292 13.5213 6.23853L10.6093 9.20848L11.2966 13.4064C11.3118 13.4991 11.3019 13.5944 11.2681 13.6816C11.2342 13.7687 11.1778 13.8442 11.1051 13.8995C11.0325 13.9548 10.9465 13.9877 10.8569 13.9945C10.7674 14.0013 10.6778 13.9817 10.5983 13.938L7.00005 11.959L3.40124 13.9398C3.32168 13.9833 3.23208 14.0027 3.14255 13.9958C3.05301 13.9889 2.96711 13.9559 2.89451 13.9006C2.82191 13.8453 2.7655 13.7698 2.73165 13.6827C2.69779 13.5956 2.68783 13.5003 2.70289 13.4076L3.39025 9.21211L0.478222 6.24217C0.413877 6.17656 0.368354 6.09339 0.346809 6.00208C0.325265 5.91076 0.32856 5.81495 0.356321 5.7255C0.384082 5.63604 0.4352 5.55652 0.503886 5.49594C0.572571 5.43535 0.656079 5.39612 0.744951 5.3827L4.76844 4.76628L6.56785 0.947783C6.60765 0.863428 6.66917 0.792405 6.74545 0.742726C6.82174 0.693047 6.90976 0.666689 6.99958 0.666626C7.08941 0.666563 7.17746 0.692797 7.25381 0.742369C7.33016 0.791941 7.39177 0.862878 7.43168 0.947177Z" fill="#FFC400"/>
</svg>
