<svg width="14" height="10" viewBox="0 0 14 10" fill="none" xmlns="http://www.w3.org/2000/svg">
<path fill-rule="evenodd" clip-rule="evenodd" d="M1.80066 5.3333C1.84826 5.40066 1.90298 5.47617 1.96458 5.5583C2.22971 5.91181 2.61798 6.38218 3.10977 6.85055C4.10797 7.80122 5.45 8.66665 7 8.66665C8.55 8.66665 9.89202 7.80122 10.8902 6.85055C11.382 6.38218 11.7703 5.91181 12.0354 5.5583C12.097 5.47617 12.1517 5.40066 12.1993 5.3333C12.1517 5.26595 12.097 5.19043 12.0354 5.1083C11.7703 4.75479 11.382 4.28442 10.8902 3.81606C9.89202 2.86538 8.55 1.99996 7 1.99996C5.45 1.99996 4.10797 2.86538 3.10977 3.81606C2.61798 4.28442 2.22971 4.75479 1.96458 5.1083C1.90298 5.19043 1.84826 5.26595 1.80066 5.3333ZM13 5.3333C13.5717 4.99031 13.5715 4.99011 13.5714 4.98989L13.5703 4.98809L13.5681 4.98442L13.561 4.97279C13.5551 4.96316 13.5468 4.94982 13.5362 4.93302C13.5151 4.89943 13.4846 4.85194 13.4452 4.79254C13.3663 4.67383 13.2512 4.50708 13.1021 4.3083C12.8047 3.91181 12.368 3.38217 11.8098 2.85054C10.708 1.80121 9.05 0.666626 7 0.666626C4.95 0.666626 3.29202 1.80121 2.19022 2.85054C1.63201 3.38217 1.19528 3.91181 0.897911 4.3083C0.748823 4.50708 0.633702 4.67383 0.55484 4.79254C0.515384 4.85194 0.48493 4.89943 0.463765 4.93302C0.45318 4.94982 0.444912 4.96316 0.438996 4.97279L0.431889 4.98442L0.429665 4.98809L0.428887 4.98938C0.428757 4.9896 0.428332 4.99031 0.999994 5.3333L0.428332 4.99031L0.222534 5.3333L0.428332 5.6763L0.999994 5.3333C0.428332 5.6763 0.428202 5.67608 0.428332 5.6763L0.428887 5.67722L0.429665 5.67851L0.431889 5.68219L0.438996 5.69382C0.444912 5.70344 0.45318 5.71678 0.463765 5.73358C0.48493 5.76718 0.515384 5.81467 0.55484 5.87406C0.633702 5.99278 0.748823 6.15952 0.897911 6.3583C1.19528 6.7548 1.63201 7.28443 2.19022 7.81606C3.29202 8.8654 4.95 9.99998 7 9.99998C9.05 9.99998 10.708 8.8654 11.8098 7.81606C12.368 7.28443 12.8047 6.7548 13.1021 6.3583C13.2512 6.15952 13.3663 5.99278 13.4452 5.87406C13.4846 5.81467 13.5151 5.76718 13.5362 5.73358C13.5468 5.71678 13.5551 5.70344 13.561 5.69382L13.5681 5.68219L13.5703 5.67851L13.5711 5.67722C13.5712 5.67701 13.5717 5.6763 13 5.3333ZM13 5.3333L13.5717 5.6763L13.7775 5.3333L13.5714 4.98989L13 5.3333Z" fill="#808089"/>
<path fill-rule="evenodd" clip-rule="evenodd" d="M6.99997 4.39996C6.37732 4.39996 5.95235 4.86041 5.95235 5.3333C5.95235 5.80619 6.37732 6.26664 6.99997 6.26664C7.62262 6.26664 8.04759 5.80619 8.04759 5.3333C8.04759 4.86041 7.62262 4.39996 6.99997 4.39996ZM4.61902 5.3333C4.61902 4.03888 5.72908 3.06663 6.99997 3.06663C8.27087 3.06663 9.38093 4.03888 9.38093 5.3333C9.38093 6.62772 8.27087 7.59997 6.99997 7.59997C5.72908 7.59997 4.61902 6.62772 4.61902 5.3333Z" fill="#808089"/>
</svg>
