<svg width="19" height="19" viewBox="0 0 19 19" fill="none" xmlns="http://www.w3.org/2000/svg">
<path d="M17.7564 6.45761L9.54692 0.175681C9.40131 0.0641736 9.22035 0.00341797 9.03382 0.00341797C8.8473 0.00341797 8.66634 0.0641736 8.52073 0.175681L0.311243 6.45761C0.215136 6.53121 0.137566 6.62455 0.0842763 6.73071C0.0309864 6.83686 0.00334132 6.95313 0.00338751 7.07089V17.279C0.00338751 17.4873 0.08988 17.687 0.243838 17.8343C0.397796 17.9815 0.606607 18.0643 0.824336 18.0643H6.57098V11.7823H11.4967V18.0643H17.2433C17.461 18.0643 17.6699 17.9815 17.8238 17.8343C17.9778 17.687 18.0643 17.4873 18.0643 17.279V7.07089C18.0643 6.95313 18.0367 6.83686 17.9834 6.73071C17.9301 6.62455 17.8525 6.53121 17.7564 6.45761V6.45761Z" fill="#F8C614"/>
</svg>
